<?xml version="1.0" encoding="utf-8"?>
<!-- Generator: Adobe Illustrator 17.0.0, SVG Export Plug-In . SVG Version: 6.00 Build 0)  -->
<!DOCTYPE svg PUBLIC "-//W3C//DTD SVG 1.1//EN" "http://www.w3.org/Graphics/SVG/1.1/DTD/svg11.dtd">
<svg version="1.1" id="图层_1" xmlns="http://www.w3.org/2000/svg" xmlns:xlink="http://www.w3.org/1999/xlink" x="0px" y="0px"
	 width="512px" height="512px" viewBox="0 0 512 512" enable-background="new 0 0 512 512" xml:space="preserve">
<g>
	<path fill-rule="evenodd" clip-rule="evenodd" fill="#FFFFFF" d="M204.277,141.553l40.9-10.956
		c1.613-0.432,3.272,0.525,3.704,2.138c0.432,1.613-0.525,3.271-2.139,3.703l-40.9,10.956c-1.613,0.432-3.272-0.525-3.704-2.138
		C201.706,143.644,202.664,141.986,204.277,141.553z"/>
	<path fill-rule="evenodd" clip-rule="evenodd" fill="none" stroke="#FFFFFF" stroke-width="8" stroke-miterlimit="10" d="
		M170.827,238.715l-23.935-89.302c-2.594-9.678,3.151-19.626,12.832-22.219L276.58,95.891c9.681-2.593,19.631,3.15,22.225,12.828
		l16.885,62.998l-60.579,16.228c-9.681,2.593-15.426,12.541-12.832,22.219c2.594,9.678,12.545,15.421,22.225,12.828l60.579-16.228
		l5.01,18.692l-55.905,14.976c-9.681,2.593-15.426,12.541-12.832,22.219c2.594,9.678,12.544,15.421,22.225,12.828l55.905-14.975
		l22.289,83.161c2.594,9.678-3.151,19.626-12.832,22.219l-116.856,31.303c-9.681,2.593-19.631-3.15-22.225-12.828
		c0,0-16.536-61.698-24.065-89.786"/>
	
		<path fill-rule="evenodd" clip-rule="evenodd" fill="none" stroke="#FFFFFF" stroke-width="8" stroke-linecap="round" stroke-miterlimit="10" d="
		M186.412,293.058c67.102-52.463,36.293-99.174,36.293-99.174s-48.8,42.171-65.699,56.775c-6.041,5.56-6.888,14.583-6.888,14.583
		s-2.589,32.723-4.166,51.321c-0.413,14.958,6.585,23.664,6.585,23.664l26.615,36.283c0,0,3.179,7.224-0.404,15.438
		c-3.021,10.788-9.541,34.064-13.022,46.494c-1.911,7.045,4.958,10.635,4.958,10.635l101.622,16.932c0,0,6.157-1.548,6.328-8.742
		c0.637-17.178,3.35-51.731,3.35-51.731s0.755-7.476,3.813-9.699c10.726-7.798,33.691-21.747,33.691-21.747"/>
	<path fill-rule="evenodd" clip-rule="evenodd" fill="#FFFFFF" d="M279.293,344.334c5.808-1.556,11.779,1.89,13.335,7.697
		c1.556,5.807-1.891,11.775-7.699,13.331c-5.808,1.556-11.779-1.89-13.335-7.697C270.038,351.858,273.485,345.89,279.293,344.334z"
		/>
	<g>
		<path fill="none" stroke="#FFFFFF" stroke-width="8" stroke-linecap="round" stroke-linejoin="round" stroke-miterlimit="10" d="
			M365.613,414.012c36.439-9.743,58.064-47.118,48.3-83.48 M365.464,387.59c19.196-5.133,30.587-24.821,25.444-43.976
			 M143.916,75.348c-36.439,9.743-58.064,47.118-48.3,83.48 M144.066,101.77c-19.196,5.133-30.587,24.821-25.444,43.976"/>
	</g>
	<g>
		<g>
			<path fill="none" stroke="#FFFFFF" stroke-width="8" stroke-miterlimit="10" d="M350.955,181.052
				c-2.594-9.678-12.544-15.421-22.225-12.828l-73.619,19.721c-9.681,2.593-15.426,12.541-12.832,22.219
				c2.594,9.678,12.544,15.421,22.225,12.828l73.619-19.721C347.804,200.678,353.549,190.73,350.955,181.052z"/>
		</g>
	</g>
	<path fill-rule="evenodd" clip-rule="evenodd" fill="#FFFFFF" d="M316.115,266.763l-32.534,8.715
		c-9.681,2.593-19.631-3.15-22.225-12.828c-2.594-9.678,3.151-19.626,12.832-22.219l32.534-8.715l-5.01-18.692l-37.208,9.967
		c-9.681,2.593-19.631-3.15-22.225-12.828c-2.594-9.678,3.151-19.626,12.832-22.219l37.208-9.967l-10.31-38.465l-105.17,28.172
		l14.327,53.454l31.54-27.256c0,0,31.365,36.665-16.456,83.536l20.687,77.184l105.17-28.172L316.115,266.763z"/>
	<path fill-rule="evenodd" clip-rule="evenodd" fill="none" stroke="#FFFFFF" stroke-width="8" stroke-miterlimit="10" d="
		M274.188,240.431l73.619-19.721c9.681-2.593,19.631,3.15,22.225,12.828c2.594,9.678-3.151,19.626-12.832,22.219l-73.619,19.721
		c-9.681,2.593-19.631-3.15-22.225-12.828C258.762,252.972,264.507,243.024,274.188,240.431z"/>
	<path fill-rule="evenodd" clip-rule="evenodd" fill="none" stroke="#FFFFFF" stroke-width="8" stroke-miterlimit="10" d="
		M268.354,98.095l7.843-29.261c2.594-9.678-3.151-19.626-12.832-22.219c-9.681-2.593-19.631,3.15-22.225,12.828l-13.266,49.496
		L268.354,98.095z"/>
	<path fill-rule="evenodd" clip-rule="evenodd" fill="none" stroke="#FFFFFF" stroke-width="8" stroke-miterlimit="10" d="
		M418.106,281.152c-2.594-9.678-12.544-15.421-22.225-12.828l-50.661,13.571l9.393,35.047l50.661-13.571
		C414.955,300.778,420.7,290.83,418.106,281.152z"/>
</g>
</svg>
