<?xml version="1.0" encoding="utf-8"?>
<!-- Generator: Adobe Illustrator 17.0.0, SVG Export Plug-In . SVG Version: 6.00 Build 0)  -->
<!DOCTYPE svg PUBLIC "-//W3C//DTD SVG 1.1//EN" "http://www.w3.org/Graphics/SVG/1.1/DTD/svg11.dtd">
<svg version="1.1" id="图层_1" xmlns="http://www.w3.org/2000/svg" xmlns:xlink="http://www.w3.org/1999/xlink" x="0px" y="0px"
	 width="512px" height="512px" viewBox="0 0 512 512" enable-background="new 0 0 512 512" xml:space="preserve">
<g>
	<path fill="#FCD23F" d="M156.977,246.067v11.109c0.655,0.281,1.593,0.798,2.813,1.547c0.655,0.376,1.452,0.703,2.391,0.984
		c1.03,0.654,4.922,0.89,11.672,0.703c2.813-0.095,5.625-0.33,8.438-0.703c-0.47,0.563-0.798,1.452-0.984,2.672
		c-1.22,0.092-2.907,0.141-5.063,0.141c-1.125,0-2.345,0-3.656,0c-1.125,0.092-2.626,0.141-4.5,0.141
		c-4.032,0.187-7.267-0.752-9.703-2.813c-1.688-1.03-3.188-1.125-4.5-0.281c-0.844,0.563-1.642,1.498-2.391,2.813
		c-0.47-1.033-1.079-1.782-1.828-2.25c2.061-1.593,3.797-2.577,5.203-2.953v-12.093h-2.391c-0.938,0-1.876,0.049-2.813,0.141v-2.25
		c0.468,0.281,1.406,0.376,2.813,0.281h1.688c1.125,0.095,2.109,0,2.953-0.281C156.928,243.63,156.882,244.661,156.977,246.067z
		 M151.211,233.692l1.688-1.406c2.155,1.688,4.03,3.516,5.625,5.484l-1.828,1.688C155.1,237.397,153.272,235.474,151.211,233.692z
		 M168.508,239.879h-3.938c-0.938,0-1.595,0.049-1.969,0.141c-0.47,0-0.844,0-1.125,0v-2.25c0.844,0.281,1.874,0.376,3.094,0.281
		h5.344c2.531-2.813,4.219-5.249,5.063-7.313l2.672,1.266c0.187,0.095,0.233,0.189,0.141,0.281c0,0.095-0.095,0.141-0.281,0.141
		c-0.563,0.189-1.125,0.563-1.688,1.125c-0.563,0.844-1.547,2.158-2.953,3.938c-0.189,0.189-0.33,0.376-0.422,0.563h4.5
		c1.312,0.095,2.296,0,2.953-0.281v2.25c-0.657-0.092-1.642-0.141-2.953-0.141h-6.328c-0.189,1.22-0.235,3.188-0.141,5.906h7.594
		c0.749,0,1.733-0.092,2.953-0.281v2.25c-1.314-0.187-2.298-0.281-2.953-0.281h-7.734c3.656,2.813,6.937,5.766,9.844,8.859
		l-2.109,1.687c-2.345-3.466-5.111-6.279-8.297-8.437c-1.314,3.002-4.032,5.814-8.156,8.437c-0.47-0.654-1.22-1.311-2.25-1.968
		c4.687-1.498,7.64-4.359,8.859-8.578h-4.922c-0.657,0-1.595,0.095-2.813,0.281h-0.281v-2.25c0.936,0.189,1.969,0.281,3.094,0.281
		h5.063c0-0.468,0-1.406,0-2.813C168.459,241.567,168.508,240.537,168.508,239.879z M168.648,235.379l-1.688,1.688
		c-1.406-1.688-3.142-3.234-5.203-4.641l1.547-1.688C165.273,232.145,167.053,233.692,168.648,235.379z"/>
	<path fill="#FCD23F" d="M193.68,240.161h-5.484c-0.938,0.095-1.828,0.189-2.672,0.281v-2.25c0.749,0.189,1.639,0.235,2.672,0.141
		h5.766c0.844,0.095,1.874,0.049,3.094-0.141c-1.22,2.345-2.439,4.5-3.656,6.469c1.688,1.314,3.375,2.672,5.063,4.078l-1.266,2.109
		c-1.033-1.03-2.298-2.201-3.797-3.516c-0.189-0.187-0.281-0.327-0.281-0.422v12.937c-0.095,0.936-0.048,1.969,0.141,3.094h-2.391
		c0-0.563,0-1.079,0-1.547c0.092-0.376,0.141-0.893,0.141-1.547v-12.234c-1.314,1.406-2.672,2.721-4.078,3.938
		c-0.751-0.654-1.455-1.171-2.109-1.547C188.569,247.663,191.522,244.379,193.68,240.161z M195.227,234.817l-1.688,1.688
		c-1.314-1.312-3.001-2.953-5.063-4.922l1.547-1.547c0.749,0.657,1.874,1.736,3.375,3.234
		C193.961,233.833,194.569,234.349,195.227,234.817z M203.102,246.348h-0.703c-1.033,0-2.063,0.049-3.094,0.141
		c0.092-1.125,0.187-2.25,0.281-3.375v-7.875c-0.095-0.936-0.189-1.92-0.281-2.953c0.749,0.189,1.78,0.235,3.094,0.141h9.703
		c1.125,0.095,2.109,0.049,2.953-0.141c-0.189,1.033-0.235,2.018-0.141,2.953v7.875c-0.095,1.501-0.048,2.626,0.141,3.375
		c-0.657-0.092-1.642-0.141-2.953-0.141h-1.547v11.39c-0.376,1.314,0.422,1.92,2.391,1.828c2.155,0.281,3.28-0.936,3.375-3.656
		c0.468,1.033,1.171,1.641,2.109,1.828c-0.47,2.623-2.298,3.843-5.484,3.656c-3.094,0.187-4.548-0.703-4.359-2.672v-12.375h-3.375
		c-0.095,4.595-0.751,7.97-1.969,10.125c-1.314,2.063-3.751,4.124-7.313,6.187c-0.657-0.844-1.36-1.455-2.109-1.828
		C200.57,258.677,203.664,253.85,203.102,246.348z M201.555,244.52h11.391v-10.266h-11.391V244.52z"/>
	<path fill="#FCD23F" d="M230.102,240.442h-5.484c-0.751,0.095-1.547,0.189-2.391,0.281c-0.189,0-0.33,0-0.422,0v-2.25
		c0.281,0.095,0.703,0.189,1.266,0.281c0.655,0,1.171,0,1.547,0h5.344c0.374,0,1.03,0,1.969,0c0.563-0.092,1.077-0.187,1.547-0.281
		c-1.125,2.439-2.439,4.83-3.938,7.172c1.312,1.125,2.953,2.531,4.922,4.219l-1.547,1.828c-1.406-1.688-2.58-2.904-3.516-3.656
		v11.812c-0.095,0.936,0,1.969,0.281,3.094h-2.531c0.187-1.033,0.281-2.063,0.281-3.094v-11.531
		c-0.657,0.752-1.501,1.596-2.531,2.531c-0.47,0.471-0.984,0.984-1.547,1.547c-0.47-0.468-1.22-1.03-2.25-1.688
		C225.226,248.176,228.225,244.755,230.102,240.442z M231.227,235.801l-1.688,1.547c-1.125-1.498-2.813-3.234-5.063-5.203
		l1.547-1.547C227.897,232.194,229.631,233.927,231.227,235.801z M234.461,233.973v-2.109c1.03,0.189,2.015,0.235,2.953,0.141
		h14.203c0.844,0.095,1.779,0.049,2.813-0.141v2.109c-1.033-0.092-1.969-0.141-2.813-0.141h-14.203
		C236.663,233.833,235.678,233.881,234.461,233.973z M238.398,247.051h12.093c1.031,0.095,2.061,0,3.094-0.281
		c-0.094,0.376-0.189,0.844-0.281,1.406c0,0.657,0,1.125,0,1.406v9.984c0,0.844,0.047,1.779,0.141,2.813
		c0,0.092,0.047,0.232,0.141,0.422h-2.531c0.092-0.938,0.188-1.736,0.281-2.391h-13.781c0,0.373,0.046,0.984,0.141,1.828
		c0,0.281,0.046,0.563,0.141,0.844h-2.531c0.187-1.314,0.281-2.485,0.281-3.516v-9.562c0-0.936-0.095-2.015-0.281-3.234
		C236.616,247.051,237.647,247.146,238.398,247.051z M251.335,239.317v1.969c0,0.376,0.047,0.938,0.141,1.688
		c0,0.563,0.047,0.984,0.141,1.266c-0.656,0-1.174-0.046-1.547-0.141c-0.656-0.092-1.174-0.141-1.547-0.141h-8.156
		c-0.376,0-0.938,0.095-1.688,0.281c-0.563,0-0.984,0-1.266,0c0.187-0.936,0.281-1.92,0.281-2.953v-1.969
		c0-0.844-0.095-1.779-0.281-2.813c0.936,0.189,1.92,0.235,2.953,0.141h8.156c1.031,0.095,2.061,0.049,3.094-0.141
		c-0.094,0.281-0.141,0.657-0.141,1.125C251.287,238.381,251.242,238.944,251.335,239.317z M237.555,253.098h5.906v-4.219h-5.906
		V253.098z M237.555,254.926v3.937h5.906v-3.937H237.555z M239.664,238.473v3.797h9.703v-3.797H239.664z M245.57,248.879v4.219
		h5.765v-4.219H245.57z M245.57,254.926v3.937h5.765v-3.937H245.57z"/>
	<path fill="#FCD23F" d="M266.945,254.364v5.062c-0.281,2.25-1.642,3.843-4.078,4.781v-1.688c1.217-0.938,1.828-2.018,1.828-3.234
		h-2.25v-4.921H266.945z"/>
	<path fill="#FCD23F" d="M299.008,248.458v-8.297h-2.25c-0.657,0-1.596,0.095-2.813,0.281h-0.281v-2.25
		c1.03,0.189,2.061,0.235,3.094,0.141h2.25v-3.938c0-0.936-0.049-1.639-0.141-2.109c0-0.655,0-1.312,0-1.969l2.672,0.422
		c0.373,0.095,0.563,0.235,0.563,0.422c0,0.189-0.141,0.376-0.422,0.563c-0.471,0.189-0.657,1.079-0.563,2.672v3.938h0.984
		c0.936,0.095,2.015,0.049,3.234-0.141v2.25c-0.095,0-0.235,0-0.422,0c-0.844-0.092-1.782-0.187-2.813-0.281h-0.984v7.594
		c1.125-0.468,2.391-1.076,3.797-1.828c0,0.376-0.049,0.798-0.141,1.266c-0.095,0.471-0.095,0.844,0,1.125
		c-0.471,0.189-1.125,0.471-1.969,0.844c-0.752,0.376-1.314,0.611-1.688,0.703v9.984c0.281,2.531-1.406,3.797-5.063,3.797
		c-0.281-0.938-0.657-1.877-1.125-2.813c2.999,0.563,4.359,0.141,4.078-1.266v-8.859c-1.688,0.844-3.188,1.596-4.5,2.25
		l-1.406-2.672C295.257,250.004,297.226,249.396,299.008,248.458z M316.586,234.114v4.078h4.641
		c1.312,0.095,2.437,0.049,3.375-0.141c-0.189,1.314-0.235,2.439-0.141,3.375v18.281c-0.095,1.217-0.049,2.437,0.141,3.656h-2.391
		c0.187-1.596,0.281-2.531,0.281-2.813h-13.359c-0.095,1.125-0.049,2.155,0.141,3.094h-2.391c0-0.563,0-1.174,0-1.828
		c0.092-0.563,0.141-1.314,0.141-2.25v-18.281c0-1.217-0.049-2.296-0.141-3.234c1.217,0.189,2.342,0.235,3.375,0.141h4.359v-4.078
		c-0.095-1.03-0.189-2.061-0.281-3.094c0-0.374,0-0.655,0-0.844l2.813,0.422c0.281,0.095,0.422,0.235,0.422,0.422
		c0,0.095-0.141,0.281-0.422,0.563C316.678,231.958,316.491,232.802,316.586,234.114z M309.133,247.895h5.484v-7.875h-5.484V247.895
		z M309.133,249.723v9.281h5.484v-9.281H309.133z M316.586,240.02v7.875h5.906v-7.875H316.586z M316.586,259.004h5.906v-9.281
		h-5.906V259.004z"/>
	<path fill="#FCD23F" d="M343.586,242.833h-9.844c-0.189,0-0.611,0.049-1.266,0.141c-0.844,0.095-1.406,0.095-1.688,0v-2.109
		c0.281,0,0.89,0.049,1.828,0.141c0.563,0,0.936,0,1.125,0h9.984v-6.891c0-0.654-0.049-1.217-0.141-1.688c0-0.563,0-1.125,0-1.688
		l2.672,0.422c0.187,0,0.281,0.048,0.281,0.141c0.092,0.095,0.046,0.235-0.141,0.422c-0.376,0.563-0.563,1.455-0.563,2.672v6.609
		h10.688c0.563,0.095,1.639,0.049,3.234-0.141v2.109c-0.471,0-1.22,0-2.25,0c-0.563-0.092-0.893-0.141-0.984-0.141h-10.266
		c2.531,8.719,7.734,14.673,15.609,17.859c-1.033,0.468-1.877,1.217-2.531,2.25c-6.939-4.5-11.672-9.935-14.203-16.312
		c-1.406,6.188-5.72,11.72-12.938,16.593c-0.752-0.563-1.642-1.125-2.672-1.688C337.866,257.598,342.553,251.365,343.586,242.833z"
		/>
	<path fill="#FCD23F" d="M369.32,250.989h10.969c0.092-0.563,0.141-1.547,0.141-2.953l2.531,0.422
		c0.373,0.095,0.563,0.189,0.563,0.281c0.092,0.189,0.046,0.376-0.141,0.563c-0.563,0.376-0.844,0.938-0.844,1.688h11.953
		c1.03,0.095,1.969,0,2.813-0.281v2.391c-0.095,0-0.235,0-0.422,0c-0.657-0.092-1.455-0.187-2.391-0.281h-10.266
		c2.531,4.313,6.796,6.89,12.797,7.734c-0.189,0.187-0.422,0.422-0.703,0.703c-0.563,0.749-0.938,1.406-1.125,1.969
		c-6.377-2.439-10.782-5.766-13.219-9.984c-1.782,4.218-6.236,7.544-13.359,9.984c-0.752-1.125-1.455-1.923-2.109-2.391
		c6.561-0.844,11.015-3.516,13.359-8.015H369.32c-1.314,0-2.299,0.095-2.953,0.281v-2.391
		C367.492,250.989,368.477,251.083,369.32,250.989z M375.227,245.786v-4.078c-2.439,1.314-4.689,2.813-6.75,4.5
		c-0.752-0.936-1.406-1.733-1.969-2.391c2.25-0.563,5.154-1.969,8.719-4.219v-6.609c-0.189-1.217-0.281-2.109-0.281-2.672
		l2.672,0.281v0.141c0.373,0,0.422,0.141,0.141,0.422c-0.376,0.657-0.563,1.266-0.563,1.828v12.797c0,0.938,0.046,1.782,0.141,2.531
		c0,0.189,0.046,0.281,0.141,0.281h-2.531c0-0.092,0-0.281,0-0.563C375.037,247.381,375.132,246.629,375.227,245.786z
		 M368.055,234.536l1.266-1.688c1.969,1.314,3.797,2.672,5.484,4.078l-1.266,1.828C371.662,237.162,369.834,235.755,368.055,234.536
		z M384.93,234.395h7.875c1.217,0,2.296-0.092,3.234-0.281c-3.002,6.563-7.453,11.204-13.359,13.922
		c-0.376-0.373-0.938-0.936-1.688-1.688c-0.189-0.187-0.33-0.373-0.422-0.563c2.155-0.187,4.405-1.217,6.75-3.094
		c-0.938-0.844-2.299-2.015-4.078-3.516l1.406-1.547c1.125,1.033,2.531,2.25,4.219,3.656c1.593-1.498,2.858-3.234,3.797-5.203h-9
		c-0.563,0.657-1.22,1.455-1.969,2.391c-0.844,1.033-1.501,1.828-1.969,2.391c-0.752-0.563-1.547-1.03-2.391-1.406
		c3.28-2.155,5.766-5.295,7.453-9.422l2.672,1.266c0.187,0.095,0.281,0.235,0.281,0.422c-0.095,0.095-0.281,0.189-0.563,0.281
		c-0.471,0.189-0.893,0.471-1.266,0.844c-0.095,0.189-0.189,0.376-0.281,0.563C385.443,233.692,385.211,234.022,384.93,234.395z"/>
</g>
<g>
</g>
<g>
	<path fill="#FCD23F" d="M162.249,143.197h1.125l2.25,2.531l-5.625,10.969l2.25,3.656v4.781l-4.5,6.188v7.031l1.125-1.125h2.25
		v1.125l-2.25,3.656v2.531l1.125,14.625c-1.503,0-2.25,1.217-2.25,3.656l-1.125,1.125h-1.125c-3.564-4.126-8.064-6.188-13.5-6.188
		h-3.375v-2.25c9.747-6.935,14.625-10.969,14.625-12.094v-9.844c-2.439,2.065-5.814,3.283-10.125,3.656l-2.25-3.656v-1.125
		c0-1.872,2.997-3.938,9-6.188c3.938-1.872,7.313-8.341,10.125-19.406l-1.125-1.125L162.249,143.197z M149.874,194.385h4.5v-3.656
		C151.372,191.854,149.874,193.075,149.874,194.385z M171.249,171.322h2.531v1.125c-5.44,10.314-9.281,15.565-11.531,15.75
		l-1.125-3.656C162.433,180.419,165.808,176.011,171.249,171.322z M203.03,142.072l2.25,3.656l-7.875,6.188l1.125,1.125v3.656
		c0,6.188-5.625,10.595-16.875,13.219h-1.125v1.406h3.375l18-7.313h1.125l2.25,2.25c0,3.564-4.126,6.847-12.375,9.844v8.438
		c2.997,0,4.5,0.844,4.5,2.531v1.125l-7.875,13.219l-10.125,6.188h-8.156l-2.25-2.531v-1.125c0.747-2.628,4.966-5.44,12.656-8.438
		v-1.125h-5.625v-5.063l5.625-4.781v2.531h5.625l1.125-5.063l-1.125-1.125l-1.125,1.125h-2.25l2.25-3.656
		c-5.063,0-8.064-1.591-9-4.781l1.125-1.125l-3.375-15.75c-2.439,0-3.656-0.844-3.656-2.531v-1.125l2.531-2.531l1.125,1.406
		L203.03,142.072z M178.28,199.166v1.125l7.875-1.125v-3.656L178.28,199.166z M179.405,156.697v1.125l2.25,8.438h2.25l-1.125-5.906
		v-3.656H179.405z M186.155,155.291l2.25,6.188h1.125l2.25-2.531v-3.656H186.155z M201.905,194.385h4.5l2.25,2.25
		c0,4.311-2.25,7.594-6.75,9.844h-3.375v-1.406l4.5-7.313L201.905,194.385z"/>
	<path fill="#FCD23F" d="M296.123,166.822c3.748,3.19,6.372,6.565,7.875,10.125c0,2.25-1.503,3.375-4.5,3.375l-7.875-1.125
		l-7.875,1.125v-1.406l7.875-3.094v-1.125l-13.219,0.281c-18.563,3.19-27.659,6.658-27.281,10.406l-1.125,1.125h-3.375
		c-6.188-2.435-10.314-4.874-12.375-7.313c0-1.499,11.25-4.874,33.75-10.125L296.123,166.822z"/>
	<path fill="#FCD23F" d="M352.373,143.197h1.125l2.25,2.531l-5.625,10.969l2.25,3.656v4.781l-4.5,6.188v7.031l1.125-1.125h2.25
		v1.125l-2.25,3.656v2.531l1.125,14.625c-1.503,0-2.25,1.217-2.25,3.656l-1.125,1.125h-1.125c-3.564-4.126-8.064-6.188-13.5-6.188
		h-3.375v-2.25c9.747-6.935,14.625-10.969,14.625-12.094v-9.844c-2.439,2.065-5.814,3.283-10.125,3.656l-2.25-3.656v-1.125
		c0-1.872,2.997-3.938,9-6.188c3.938-1.872,7.313-8.341,10.125-19.406l-1.125-1.125L352.373,143.197z M339.998,194.385h4.5v-3.656
		C341.496,191.854,339.998,193.075,339.998,194.385z M361.373,171.322h2.531v1.125c-5.44,10.314-9.281,15.565-11.531,15.75
		l-1.125-3.656C352.558,180.419,355.933,176.011,361.373,171.322z M393.154,142.072l2.25,3.656l-7.875,6.188l1.125,1.125v3.656
		c0,6.188-5.625,10.595-16.875,13.219h-1.125v1.406h3.375l18-7.313h1.125l2.25,2.25c0,3.564-4.127,6.847-12.375,9.844v8.438
		c2.997,0,4.5,0.844,4.5,2.531v1.125l-7.875,13.219l-10.125,6.188h-8.156l-2.25-2.531v-1.125c0.747-2.628,4.966-5.44,12.656-8.438
		v-1.125h-5.625v-5.063l5.625-4.781v2.531h5.625l1.125-5.063l-1.125-1.125l-1.125,1.125h-2.25l2.25-3.656
		c-5.063,0-8.064-1.591-9-4.781l1.125-1.125l-3.375-15.75c-2.439,0-3.656-0.844-3.656-2.531v-1.125l2.531-2.531l1.125,1.406
		L393.154,142.072z M368.404,199.166v1.125l7.875-1.125v-3.656L368.404,199.166z M369.529,156.697v1.125l2.25,8.438h2.25
		l-1.125-5.906v-3.656H369.529z M376.279,155.291l2.25,6.188h1.125l2.25-2.531v-3.656H376.279z M392.029,194.385h4.5l2.25,2.25
		c0,4.311-2.25,7.594-6.75,9.844h-3.375v-1.406l4.5-7.313L392.029,194.385z"/>
</g>
<g>
	<g>
		<path fill-rule="evenodd" clip-rule="evenodd" fill="#FCD23F" d="M496.209,218.519c-5.051-3.16,3.047,19.852-7.365,35.692
			c-10.413,15.84-35.883,19.254-30.831,22.414c5.051,3.16,27.347-0.388,37.76-16.228
			C506.185,244.558,501.261,221.679,496.209,218.519z M476.835,246.956c7.672-11.672,3.766-27.468-0.261-29.987
			c-4.027-2.519,2.214,14.486-5.459,26.158s-24.991,13.041-20.964,15.56C454.178,261.205,469.163,258.627,476.835,246.956z
			 M77.661,104.019c-6.258-3.934-34.119,0.482-47.019,20.202c-12.9,19.72-6.56,48.202-0.302,52.136
			c6.258,3.934-3.297-25.714,9.602-45.434C52.842,111.204,83.919,107.953,77.661,104.019z M80.699,128.61
			c-4.048-2.537-20.116,0.059-27.828,11.816c-7.712,11.757-3.785,27.669,0.262,30.206c4.048,2.537-0.215-13.585,7.498-25.341
			C68.343,133.534,84.747,131.147,80.699,128.61z"/>
	</g>
</g>
</svg>
